<svg xmlns="http://www.w3.org/2000/svg" viewBox="0 0 1024 1024" width="1024" height="1024">
	<defs>
		<clipPath clipPathUnits="userSpaceOnUse" id="cp1">
			<path d="M0 0L1024 0L1024 1024L0 1024Z" />
		</clipPath>
		<clipPath clipPathUnits="userSpaceOnUse" id="cp2">
			<path d="M0 0L1024 0L1024 1024L0 1024L0 0Z" />
		</clipPath>
	</defs>
	<style>
		tspan { white-space:pre }
		.shp0 { fill: #000000 } 
	</style>
	<g id="Page 1" clip-path="url(#cp1)">
		<g id="Mask" clip-path="url(#cp2)">
			<path id="Path 2" class="shp0" d="M680.2 354.6L430.6 606L336.2 511.6L300.6 547.2L412.6 659.2C417.6 664.2 424.4 668.2 430.4 668.2C436.4 668.2 443 664.2 448 659.4L715.4 390.6L680.2 354.6Z" />
			<path id="Path 3" fill-rule="evenodd" class="shp0" d="M928 512C928 741.8 741.8 928 512 928C282.2 928 96 741.8 96 512C96 282.2 282.2 96 512 96C741.8 96 928 282.2 928 512ZM893.4 512C893.4 301.6 722.2 130.6 512 130.6C301.6 130.6 130.6 301.8 130.6 512C130.6 722.4 301.8 893.4 512 893.4C722.2 893.4 893.4 722.2 893.4 512Z" />
		</g>
	</g>
</svg>