<svg xmlns="http://www.w3.org/2000/svg" viewBox="0 0 1024 1024" width="1024" height="1024">
	<defs>
		<clipPath clipPathUnits="userSpaceOnUse" id="cp1">
			<path d="M0 0L1024 0L1024 1024L0 1024Z" />
		</clipPath>
		<clipPath clipPathUnits="userSpaceOnUse" id="cp2">
			<path d="M0 0L1024 0L1024 1024L0 1024L0 0Z" />
		</clipPath>
	</defs>
	<style>

		.shp0 { fill: 000000 }
	</style>
	<g id="Page 1" clip-path="url(#cp1)">
		<g id="Mask" clip-path="url(#cp2)">
			<path id="Path 2" class="shp0" d="M873.82 740.88L640 350L640 96L672 96L672 64L639.98 64L608 64L608 96L608 358.84L613.03 366.42L846.18 756.09C859.68 781.72 864.81 807.99 864.18 832C863.69 850.68 860.26 867.88 851.09 883.14C834.15 911.33 804.66 928 769.96 928L258.19 928C223.18 928 193.26 911.13 176.12 882.59C152.32 842.99 154.34 806.3 180.67 756.31L363.64 448L480 448L480 416L382.63 416L412.01 366.49L416 358.8L416 352L512 352L512 320L416 320L416 256L480 256L480 224L416 224L416 160L512 160L512 128L416 128L416 96L416 64L384.02 64L352 64L352 96L384 96L384 350L152.25 740.88C135.43 772.54 127.23 803.63 128.05 832C130.18 905.02 185.46 960 258.18 960L769.96 960C842.54 960 894.22 904.8 895.95 832C896.62 803.51 890.73 772.7 873.82 740.88Z" />
			<path id="Path 3" fill-rule="evenodd" class="shp0" d="M359 512L665.46 512L809.13 749.43C823.02 770.62 829.86 797.11 829.3 816.08C827.89 864.58 797.55 896 737.94 896L286.08 896C226.35 896 194.71 871.5 194.71 816.33C194.71 797.42 202.77 770.32 216.58 749.23L359 512ZM377.13 544L244.03 765.71L243.7 765.8L243.34 766.4C232.42 783.07 226.71 803.95 226.71 815.83C226.71 841.72 235.67 849.53 238.61 852.01C247.53 859.53 263.95 864 286.07 864L737.94 864C758.49 864 774.4 858.96 783.95 850.3C792.36 842.67 796.86 830.39 797.32 814.71C797.66 802.9 793.13 782.78 782.37 766.35L782.05 765.99L781.75 765.74L647.41 544L377.13 544Z" />
		</g>
	</g>
</svg>