<svg xmlns="http://www.w3.org/2000/svg" viewBox="0 0 1024 1024" width="1024" height="1024">
	<defs>
		<clipPath clipPathUnits="userSpaceOnUse" id="cp1">
			<path d="M0 0L1024 0L1024 1024L0 1024Z" />
		</clipPath>
		<clipPath clipPathUnits="userSpaceOnUse" id="cp2">
			<path d="M0 0L1024 0L1024 1024L0 1024L0 0Z" />
		</clipPath>
	</defs>
	<style>
		tspan { white-space:pre }
		.shp0 { fill: #000000 } 
	</style>
	<g id="Page 1" clip-path="url(#cp1)">
		<g id="Mask" clip-path="url(#cp2)">
			<path id="Path 2" fill-rule="evenodd" class="shp0" d="M960 512C960 759.4 759.4 960 512 960C264.6 960 64 759.4 64 512C64 264.6 264.6 64 512 64C759.4 64 960 264.6 960 512ZM783.4 240.2C746 203 702.4 174.2 654.8 155.2L617 278.2C645 290.8 670.6 308.4 693 330.8C715.4 353.2 733 378.8 745.6 406.8L868.6 369C849.6 321.4 820.8 277.8 783.4 240.2ZM704 512C704 406 618 320 512 320C406 320 320 406 320 512C320 618 406 704 512 704C618 704 704 618 704 512ZM155.2 369.2L278.2 407C290.8 379 308.4 353.4 330.8 331C353.2 308.6 378.8 291 406.8 278.4L369 155.4C321.4 174.4 277.8 203 240.4 240.4C203.2 277.8 174.4 321.4 155.2 369.2ZM240.6 783.8C278 821 321.6 849.8 369.2 868.8L407 745.8C379 733.2 353.4 715.6 331 693.2C308.6 670.8 291 645.2 278.4 617.2L155.4 655C174.4 702.6 203.2 746.2 240.6 783.8ZM868.8 654.8L745.8 617C733.2 645 715.6 670.6 693.2 693C670.8 715.4 645.2 733 617.2 745.6L655 868.6C702.6 849.6 746.2 821 783.6 783.6C820.8 746.2 849.6 702.6 868.8 654.8Z" />
		</g>
	</g>
</svg>