<svg xmlns="http://www.w3.org/2000/svg" viewBox="0 0 1024 1024" width="1024" height="1024">
	<defs>
		<clipPath clipPathUnits="userSpaceOnUse" id="cp1">
			<path d="M0 0L1024 0L1024 1024L0 1024Z" />
		</clipPath>
		<clipPath clipPathUnits="userSpaceOnUse" id="cp2">
			<path d="M0 0L1024 0L1024 1024L0 1024L0 0Z" />
		</clipPath>
	</defs>
	<style>
		tspan { white-space:pre }
		.shp0 { fill: #000000 } 
	</style>
	<g id="Page 1" clip-path="url(#cp1)">
		<g id="Mask" clip-path="url(#cp2)">
			<path id="Path 2" fill-rule="evenodd" class="shp0" d="M928 512C928 741.8 741.8 928 512 928C511.8 928 511.6 928 511.4 928C511.4 928 511.2 928 511 928C281.6 927.4 96 741.4 96 512C96 282.6 281.6 96.6 511 96C511 96 511.2 96 511.4 96C511.6 96 511.6 96 511.6 96C511.8 96 511.8 96 512 96C741.8 96 928 282.2 928 512ZM528.6 495.6L678.4 495.6C677.2 433.6 669.4 377 657 328C615.6 338 572.8 343.8 528.6 345L528.6 495.6ZM647.8 296C619 204.2 573.4 144.4 528.6 132L528.6 311.6C569.6 310.4 609.4 305.2 647.8 296ZM375.2 295.8C413.8 305.2 454 310.6 495.4 311.8L495.4 131.6C450.2 143.2 404.4 203.4 375.2 295.8ZM366 327.8C353.6 376.8 345.8 433.4 344.6 495.4L495.4 495.4L495.4 345C451 343.8 407.6 337.8 366 327.8ZM334 319C292.8 306.6 253.4 289.8 216.4 269.4C165.4 331.4 133.4 409.8 129.8 495.4L311 495.4C312.4 431.8 320.4 372 334 319ZM129.6 528.6C133.4 614.2 165.2 692.6 216.2 754.6C253.4 734.2 292.6 717.6 333.8 705C320.2 652 312.2 592 311 528.6L129.6 528.6ZM366 696.2C407.6 686 451 680 495.4 678.8L495.4 528.6L344.6 528.6C345.8 590.6 353.6 647.2 366 696.2ZM375.2 728.4C404.4 820.8 450.2 880.8 495.4 892.6L495.4 712.2C454 713.4 413.8 718.8 375.2 728.4ZM648 727.8C609.4 718.6 569.6 713.2 528.6 712L528.6 892C573.6 879.6 619 819.8 648 727.8ZM657 696C669.4 647 677.2 590.4 678.4 528.6L528.6 528.6L528.6 678.8C572.8 680 615.6 686 657 696ZM689 704.6C730.6 717.2 770.2 734 807.6 754.6C858.6 692.4 890.6 614.2 894.2 528.6L711.8 528.6C710.6 592 702.6 651.6 689 704.6ZM711.8 495.6L894.2 495.6C890.6 409.8 858.6 331.4 807.6 269.4C770.4 289.8 730.8 306.6 689.2 319.2C702.6 372.2 710.6 432 711.8 495.4L711.8 495.6ZM601.2 139.8C633.4 173.4 660.8 224.4 680.2 287C716.8 276 751.6 261.4 784.8 243.8C735.2 193.6 672 156.8 601.2 139.8ZM239.4 243.8C272.2 261.4 306.8 275.8 343 286.8C362.2 224.6 389.4 173.6 421.6 140.2C351.2 157.2 288.4 193.8 239.4 243.8ZM421.6 883.8C389.4 850.2 362.2 799.4 342.8 737C306.8 748 272 762.4 239.2 780C288.4 830.2 351.2 866.8 421.6 883.8ZM785 780C751.8 762.4 717 747.8 680.4 736.8C660.8 799.6 633.6 850.6 601.2 884.2C672 867.2 735.4 830.4 785 780Z" />
		</g>
	</g>
</svg>