<svg xmlns="http://www.w3.org/2000/svg" viewBox="0 0 1024 1024" width="1024" height="1024">
	<defs>
		<clipPath clipPathUnits="userSpaceOnUse" id="cp1">
			<path d="M0 0L1024 0L1024 1024L0 1024Z" />
		</clipPath>
		<clipPath clipPathUnits="userSpaceOnUse" id="cp2">
			<path d="M0 0L1024 0L1024 1024L0 1024L0 0Z" />
		</clipPath>
	</defs>
	<style>
		tspan { white-space:pre }
		.shp0 { fill: #000000 } 
	</style>
	<g id="Page 1" clip-path="url(#cp1)">
		<g id="Mask" clip-path="url(#cp2)">
			<path id="Path 2" class="shp0" d="M831.8 671C802.6 641 719.6 584.8 665.2 584.8C652.6 584.8 641.6 587.6 632.6 593.4C606 610.4 584.8 623.6 574.6 623.6C569 623.6 563 618.6 549.8 607.2L547.6 605.2C511 573.4 503.2 565.2 489 550.4L485.4 546.6C482.8 544 480.6 541.6 478.4 539.4C466 526.6 457 517.4 425.2 481.4L423.8 479.8C408.6 462.6 398.6 451.4 398 443.2C397.4 435.2 404.4 422.2 422.2 398C443.8 368.8 444.6 332.8 424.8 291C409 258 383.2 226.4 360.4 198.6L358.4 196.2C338.8 172.2 316 160.2 290.6 160.2C262.4 160.2 239 175.4 226.6 183.4C225.6 184 224.6 184.8 223.6 185.4C195.8 203 175.6 227.2 168 251.8C156.6 288.8 149 336.8 203.6 436.6C250.8 523 293.6 581 361.6 650.8C425.6 716.4 454 737.6 517.6 783.6C588.4 834.8 656.4 864.2 704 864.2C748.2 864.2 783 864.2 832.6 804.4C884.6 741.6 863 703.2 831.8 671Z" />
		</g>
	</g>
</svg>