<svg xmlns="http://www.w3.org/2000/svg" viewBox="0 0 1024 1024" width="1024" height="1024">
	<defs>
		<clipPath clipPathUnits="userSpaceOnUse" id="cp1">
			<path d="M0 0L1024 0L1024 1024L0 1024Z" />
		</clipPath>
		<clipPath clipPathUnits="userSpaceOnUse" id="cp2">
			<path d="M0 0L1024 0L1024 1024L0 1024L0 0Z" />
		</clipPath>
	</defs>
	<style>
		tspan { white-space:pre }
		.shp0 { fill: #000000 } 
	</style>
	<g id="Page 1" clip-path="url(#cp1)">
		<g id="Mask" clip-path="url(#cp2)">
			<path id="Path 2" fill-rule="evenodd" class="shp0" d="M928 512C928 741.75 741.75 928 512 928C282.25 928 96 741.75 96 512C96 282.25 282.25 96 512 96C604.22 96 689.42 126.03 758.39 176.82C768.57 169.99 780.82 166 794 166C829.34 166 858 194.65 858 230C858 243.18 854.01 255.43 847.18 265.61C897.97 334.58 928 419.78 928 512ZM866.01 661.54C886.04 614.19 896.19 563.88 896.19 512C896.19 460.12 886.04 409.81 866.01 362.47C854.64 335.57 840.35 310.31 823.36 286.86C814.56 291.41 804.59 294 794 294C758.65 294 730 265.35 730 230C730 219.41 732.59 209.44 737.14 200.64C713.69 183.65 688.42 169.36 661.53 157.99C614.19 137.96 563.88 127.81 512 127.81C460.12 127.81 409.81 137.96 362.46 157.99C316.72 177.34 275.63 205.04 240.34 240.34C205.04 275.63 177.34 316.72 157.99 362.47C137.96 409.81 127.81 460.12 127.81 512C127.81 563.88 137.96 614.19 157.99 661.54C177.34 707.28 205.04 748.37 240.34 783.66C275.63 818.96 316.72 846.66 362.47 866.01C409.81 886.04 460.12 896.19 512 896.19C563.88 896.19 614.19 886.04 661.53 866.01C707.28 846.66 748.37 818.96 783.66 783.66C818.96 748.37 846.66 707.28 866.01 661.54ZM647.77 376.24C722.75 451.22 722.75 572.78 647.77 647.76C572.79 722.75 451.22 722.75 376.24 647.76C301.26 572.78 301.26 451.22 376.24 376.24C451.22 301.25 572.79 301.25 647.77 376.24Z" />
		</g>
	</g>
</svg>