<svg xmlns="http://www.w3.org/2000/svg" viewBox="0 0 1024 1024" width="1024" height="1024">
	<defs>
		<clipPath clipPathUnits="userSpaceOnUse" id="cp1">
			<path d="M0 0L1024 0L1024 1024L0 1024Z" />
		</clipPath>
		<clipPath clipPathUnits="userSpaceOnUse" id="cp2">
			<path d="M0 0L1024 0L1024 1024L0 1024L0 0Z" />
		</clipPath>
	</defs>
	<style>
		tspan { white-space:pre }
		.shp0 { fill: #000000 } 
	</style>
	<g id="Page 1" clip-path="url(#cp1)">
		<g id="Mask" clip-path="url(#cp2)">
			<path id="Path 2" fill-rule="evenodd" class="shp0" d="M739.8 512L740 512C718.2 542 697.2 567.4 677 602C633 677.6 640.2 747.4 640.2 765.2L640.2 768L384.2 768L384.2 765.2C384 750.6 390.8 677.6 346.8 602C326.6 567.4 305.6 542 283.8 512L284.4 512C250.4 464 224 408 224 346C224 190.2 356.2 64 512 64C667.8 64 800 190.2 800 345.8C800 408 773.6 464 739.8 512ZM713.8 492.6C745.4 449.4 768 398.6 768 345.6C768 278.8 736 216 688.8 168.8C641.6 121.6 578.8 95.4 512 95.4C445.2 95.4 382.4 121.6 335.2 168.8C288 216 256 278.8 256 345.6C256 398.6 278.6 449.6 310.2 492.8L347.4 544L347 544C356.2 556 365.4 570.6 374.4 586C408.4 644.6 415.2 701.6 416.2 736L448 736L448 512L384 384L417.2 384L480 512L480 736L544 736L544 512L606.8 384L640 384L576 512L576 735.8L607.6 735.8C608.4 701.4 614.6 645 649.2 585.6C665.6 557.8 682.4 535.2 698.6 513.4C699.8 511.8 700.8 510.4 702 508.8L713.8 492.6ZM448 928L576 928L576 960L448 960L448 928ZM416 864L608 864L608 896L416 896L416 864ZM416 800L608 800L608 832L416 832L416 800Z" />
		</g>
	</g>
</svg>