<svg xmlns="http://www.w3.org/2000/svg" viewBox="0 0 1024 1024" width="1024" height="1024">
	<defs>
		<clipPath clipPathUnits="userSpaceOnUse" id="cp1">
			<path d="M0 0L1024 0L1024 1024L0 1024Z" />
		</clipPath>
		<clipPath clipPathUnits="userSpaceOnUse" id="cp2">
			<path d="M0 0L1024 0L1024 1024L0 1024L0 0Z" />
		</clipPath>
	</defs>
	<style>
		tspan { white-space:pre }
		.shp0 { fill: #000000 } 
	</style>
	<g id="Page 1" clip-path="url(#cp1)">
		<g id="Mask" clip-path="url(#cp2)">
			<path id="Path 2" class="shp0" d="M386.4 762.4L363.2 785.2L512.2 932L661.2 785.2L638 762.4L528.6 870L528.6 385.8L495.8 385.8L495.8 870M798.4 328.8C798.4 326.4 798.8 324.2 798.8 321.8C798.8 194.8 693 92 565.2 92C473 92 393.6 145.6 356.4 222.8C340.2 214.8 322.2 210.2 302.8 210.2C243.6 210.2 194.6 256.8 185 312.8C114.6 336.8 63.8 399.6 63.8 477.6C63.8 575.8 144 656 243 656L426 656L426 624L244.6 624C162.8 624 96.2 557.6 96.2 476.6C96.2 413.8 136.6 361.6 196.6 341.2L213.4 335.6L216.4 318.2C223.6 275.6 260.6 240.6 304.2 240.6C318 240.6 331.6 243.8 344 250L371 263.4L384 236.2C417.2 167.4 488.2 123 564.8 123C675.4 123 766.6 208.6 766.6 318.2C766.6 344.4 766.2 358.4 766.2 358.4L796.6 358.6C870 359.6 927.8 418.6 927.8 491.4C927.8 564 868.2 623.6 794.8 624L788.4 624.2L594 624.2L594 656.2L796 656.2C886 656.2 959.8 581.8 959.8 492C959.8 402 889 329 798.4 328.8Z" />
		</g>
	</g>
</svg>